<svg width="68" height="80" viewBox="0 0 68 80" fill="none" xmlns="http://www.w3.org/2000/svg">
<path d="M34 80L45.2583 60.5H22.7417L34 80Z" fill="#50735F"/>
<circle cx="34" cy="34" r="34" fill="#50735F"/>
<circle cx="34" cy="34" r="30" fill="white"/>
<circle cx="34" cy="34" r="27" fill="#50735F"/>
<path d="M33.5 15C34.035 15 34.5481 15.2125 34.9264 15.5908C35.3047 15.9691 35.5172 16.4822 35.5172 17.0172V32.4828H50.9828C51.5178 32.4828 52.0309 32.6953 52.4092 33.0736C52.7875 33.4519 53 33.965 53 34.5C53 35.035 52.7875 35.5481 52.4092 35.9264C52.0309 36.3047 51.5178 36.5172 50.9828 36.5172H35.5172V51.9828C35.5172 52.5178 35.3047 53.0309 34.9264 53.4092C34.5481 53.7875 34.035 54 33.5 54C32.965 54 32.4519 53.7875 32.0736 53.4092C31.6953 53.0309 31.4828 52.5178 31.4828 51.9828V36.5172H16.0172C15.4822 36.5172 14.9691 36.3047 14.5908 35.9264C14.2125 35.5481 14 35.035 14 34.5C14 33.965 14.2125 33.4519 14.5908 33.0736C14.9691 32.6953 15.4822 32.4828 16.0172 32.4828H31.4828V17.0172C31.4828 16.4822 31.6953 15.9691 32.0736 15.5908C32.4519 15.2125 32.965 15 33.5 15Z" fill="white"/>
</svg>
