<svg width="22" height="44" viewBox="0 0 22 44" fill="none" xmlns="http://www.w3.org/2000/svg">
<path d="M2 19.56C2.00003 17.8644 2.43911 16.1977 3.2745 14.7221C4.10988 13.2466 5.31309 12.0125 6.767 11.14C6.83805 11.0975 6.89686 11.0373 6.9377 10.9652C6.97853 10.8932 7 10.8118 7 10.729V2H15V10.729C15 10.897 15.088 11.053 15.233 11.139C16.6871 12.0116 17.8904 13.2458 18.7257 14.7216C19.5611 16.1973 20.0001 17.8642 20 19.56V40C20 40.5304 19.7893 41.0391 19.4142 41.4142C19.0391 41.7893 18.5304 42 18 42H4C3.46957 42 2.96086 41.7893 2.58579 41.4142C2.21071 41.0391 2 40.5304 2 40V19.56Z" stroke="#8C8C8C" stroke-width="3" stroke-linecap="round" stroke-linejoin="round"/>
<path d="M7 8H15" stroke="#8C8C8C" stroke-width="3" stroke-linecap="round"/>
<path d="M20 21H11V36H20M20 38V19M7 10V6M15 10V6" stroke="#8C8C8C" stroke-width="3" stroke-linecap="round" stroke-linejoin="round"/>
</svg>
