<svg width="68" height="68" viewBox="0 0 68 68" fill="none" xmlns="http://www.w3.org/2000/svg">
<circle cx="34" cy="34" r="34" fill="#50735F"/>
<circle cx="34" cy="34" r="30" fill="white"/>
<circle cx="34" cy="34" r="27" fill="#50735F"/>
<path d="M46.5888 33.2441L49.2006 37.7305C49.7244 38.6312 50.0001 39.6529 50 40.6929C49.9999 41.7329 49.7239 42.7546 49.1998 43.6551C48.6757 44.5556 47.922 45.3033 47.0145 45.823C46.1069 46.3426 45.0776 46.6159 44.0299 46.6153H40.518V50L31.9939 44.0768L40.518 38.1536V41.5383H44.0333C44.1699 41.5383 44.3045 41.5057 44.4257 41.4433C44.547 41.3809 44.6514 41.2905 44.7301 41.1797C44.8088 41.0689 44.8595 40.9409 44.878 40.8066C44.8965 40.6723 44.8822 40.5355 44.8363 40.4078L44.7715 40.269L42.1631 35.7809L46.5888 33.2441ZM26.4293 28.6494L27.3346 38.9388L24.3836 37.2465L22.6242 40.269C22.5558 40.3864 22.5169 40.5184 22.5107 40.6539C22.5045 40.7894 22.5312 40.9243 22.5885 41.0474C22.6458 41.1705 22.7321 41.2781 22.8401 41.3612C22.9481 41.4443 23.0746 41.5004 23.2089 41.5247L23.3624 41.5383H28.5842V46.6153H23.3624C22.315 46.6153 21.2861 46.3416 20.379 45.8217C19.4719 45.3018 18.7187 44.5541 18.195 43.6536C17.6714 42.7532 17.3957 41.7318 17.3957 40.6921C17.3957 39.6523 17.6714 38.6309 18.1951 37.7305L19.9544 34.708L17 33.0156L26.4293 28.6494ZM36.6821 17.7947C37.5883 18.3143 38.3408 19.0614 38.8643 19.9609L40.622 22.9834L43.5764 21.2911L42.6694 31.5805L33.2418 27.2143L36.1911 25.5219L34.4352 22.4994C34.3669 22.382 34.2712 22.2825 34.1562 22.2095C34.0411 22.1364 33.91 22.0919 33.774 22.0796C33.638 22.0673 33.501 22.0877 33.3745 22.1389C33.2481 22.1902 33.1359 22.2709 33.0474 22.3742L32.9588 22.4994L30.3504 26.9875L25.9213 24.449L28.5297 19.9609C28.9216 19.2872 29.4434 18.6968 30.0653 18.2233C30.6871 17.7498 31.3968 17.4026 32.1539 17.2014C32.9109 17.0003 33.7005 16.9491 34.4774 17.0509C35.2544 17.1527 36.0036 17.4054 36.6821 17.7947Z" fill="white"/>
</svg>
