<svg width="33" height="33" viewBox="0 0 33 33" fill="none" xmlns="http://www.w3.org/2000/svg">
<path d="M29.5888 16.2441L32.2006 20.7305C32.7244 21.6312 33.0001 22.6529 33 23.6929C32.9999 24.7329 32.7239 25.7546 32.1998 26.6551C31.6757 27.5556 30.922 28.3033 30.0145 28.823C29.1069 29.3426 28.0776 29.6159 27.0299 29.6153H23.518V33L14.9939 27.0768L23.518 21.1536V24.5383H27.0333C27.1699 24.5383 27.3045 24.5057 27.4257 24.4433C27.547 24.3809 27.6514 24.2905 27.7301 24.1797C27.8088 24.0689 27.8595 23.9409 27.878 23.8066C27.8965 23.6723 27.8822 23.5355 27.8363 23.4078L27.7715 23.269L25.1631 18.7809L29.5888 16.2441ZM9.42935 11.6494L10.3346 21.9388L7.38356 20.2465L5.62419 23.269C5.55585 23.3864 5.51693 23.5184 5.51072 23.6539C5.50451 23.7894 5.53119 23.9243 5.58851 24.0474C5.64583 24.1705 5.73211 24.2781 5.84009 24.3612C5.94806 24.4443 6.07457 24.5004 6.20895 24.5247L6.36238 24.5383H11.5842V29.6153H6.36238C5.31499 29.6153 4.28606 29.3416 3.379 28.8217C2.47195 28.3018 1.71872 27.5541 1.19504 26.6536C0.671356 25.7532 0.395663 24.7318 0.395669 23.6921C0.395676 22.6523 0.671382 21.6309 1.19508 20.7305L2.95445 17.708L0 16.0156L9.42935 11.6494ZM19.6821 0.794688C20.5883 1.31431 21.3408 2.06136 21.8643 2.96089L23.622 5.98342L26.5764 4.29107L25.6694 14.5805L16.2418 10.2143L19.1911 8.52193L17.4352 5.49941C17.3669 5.38197 17.2712 5.28253 17.1562 5.20947C17.0411 5.13641 16.91 5.09187 16.774 5.0796C16.638 5.06732 16.501 5.08767 16.3745 5.13894C16.2481 5.1902 16.1359 5.27088 16.0474 5.37417L15.9588 5.49941L13.3504 9.9875L8.92131 7.44899L11.5297 2.96089C11.9216 2.2872 12.4434 1.69676 13.0653 1.22329C13.6871 0.749818 14.3968 0.402587 15.1539 0.20143C15.9109 0.000272732 16.7005 -0.0508701 17.4774 0.0509222C18.2544 0.152715 19.0036 0.405448 19.6821 0.794688Z" fill="#50735F"/>
</svg>
